<?xml version="1.0" encoding="UTF-8"?>
<svg width="400" height="400" viewBox="0 0 400 400" version="1.1" xmlns="http://www.w3.org/2000/svg">
  <!-- Modern business cityscape with charts and elements -->
  
  <!-- Background circle glow -->
  <circle cx="200" cy="200" r="170" fill="url(#radialGradient)" opacity="0.7"/>
  
  <!-- Buildings Group -->
  <g id="buildings" transform="translate(100, 80)">
    <!-- Main skyscraper -->
    <g transform="translate(20, 0)">
      <rect x="0" y="30" width="50" height="220" rx="2" fill="#1a1a1a" stroke="#ff3333" stroke-width="1.5"/>
      <rect x="5" y="40" width="40" height="200" rx="1" fill="#262626" stroke="#ff3333" stroke-width="0.5"/>
      
      <!-- Windows -->
      <g fill="#444444" stroke="#666666" stroke-width="0.5">
        <rect x="10" y="50" width="8" height="12" rx="1"/>
        <rect x="22" y="50" width="8" height="12" rx="1"/>
        <rect x="34" y="50" width="8" height="12" rx="1"/>
        
        <rect x="10" y="70" width="8" height="12" rx="1"/>
        <rect x="22" y="70" width="8" height="12" rx="1"/>
        <rect x="34" y="70" width="8" height="12" rx="1"/>
        
        <rect x="10" y="90" width="8" height="12" rx="1"/>
        <rect x="22" y="90" width="8" height="12" rx="1"/>
        <rect x="34" y="90" width="8" height="12" rx="1"/>
        
        <rect x="10" y="110" width="8" height="12" rx="1"/>
        <rect x="22" y="110" width="8" height="12" rx="1"/>
        <rect x="34" y="110" width="8" height="12" rx="1"/>
        
        <rect x="10" y="130" width="8" height="12" rx="1"/>
        <rect x="22" y="130" width="8" height="12" rx="1"/>
        <rect x="34" y="130" width="8" height="12" rx="1"/>
        
        <rect x="10" y="150" width="8" height="12" rx="1"/>
        <rect x="22" y="150" width="8" height="12" rx="1"/>
        <rect x="34" y="150" width="8" height="12" rx="1"/>
        
        <rect x="10" y="170" width="8" height="12" rx="1"/>
        <rect x="22" y="170" width="8" height="12" rx="1"/>
        <rect x="34" y="170" width="8" height="12" rx="1"/>
        
        <rect x="10" y="190" width="8" height="12" rx="1"/>
        <rect x="22" y="190" width="8" height="12" rx="1"/>
        <rect x="34" y="190" width="8" height="12" rx="1"/>
        
        <rect x="10" y="210" width="8" height="12" rx="1"/>
        <rect x="22" y="210" width="8" height="12" rx="1"/>
        <rect x="34" y="210" width="8" height="12" rx="1"/>
      </g>
      
      <!-- Antenna -->
      <rect x="22" y="10" width="6" height="20" fill="#666" stroke="#999" stroke-width="0.5"/>
      <circle cx="25" cy="8" r="3" fill="#ff3333" opacity="0.8"/>
    </g>
    
    <!-- Second building -->
    <g transform="translate(80, 100)">
      <rect x="0" y="0" width="40" height="150" rx="2" fill="#1a1a1a" stroke="#ff3333" stroke-width="1"/>
      <rect x="4" y="10" width="32" height="130" rx="1" fill="#262626" stroke="#ff3333" stroke-width="0.5"/>
      
      <!-- Windows -->
      <g fill="#444444" stroke="#666666" stroke-width="0.5">
        <rect x="8" y="20" width="6" height="10" rx="1"/>
        <rect x="18" y="20" width="6" height="10" rx="1"/>
        <rect x="28" y="20" width="6" height="10" rx="1"/>
        
        <rect x="8" y="40" width="6" height="10" rx="1"/>
        <rect x="18" y="40" width="6" height="10" rx="1"/>
        <rect x="28" y="40" width="6" height="10" rx="1"/>
        
        <rect x="8" y="60" width="6" height="10" rx="1"/>
        <rect x="18" y="60" width="6" height="10" rx="1"/>
        <rect x="28" y="60" width="6" height="10" rx="1"/>
        
        <rect x="8" y="80" width="6" height="10" rx="1"/>
        <rect x="18" y="80" width="6" height="10" rx="1"/>
        <rect x="28" y="80" width="6" height="10" rx="1"/>
        
        <rect x="8" y="100" width="6" height="10" rx="1"/>
        <rect x="18" y="100" width="6" height="10" rx="1"/>
        <rect x="28" y="100" width="6" height="10" rx="1"/>
        
        <rect x="8" y="120" width="6" height="10" rx="1"/>
        <rect x="18" y="120" width="6" height="10" rx="1"/>
        <rect x="28" y="120" width="6" height="10" rx="1"/>
      </g>
    </g>
    
    <!-- Third building -->
    <g transform="translate(-30, 120)">
      <rect x="0" y="0" width="35" height="130" rx="2" fill="#1a1a1a" stroke="#ff3333" stroke-width="1"/>
      <rect x="4" y="10" width="27" height="110" rx="1" fill="#262626" stroke="#ff3333" stroke-width="0.5"/>
      
      <!-- Windows -->
      <g fill="#444444" stroke="#666666" stroke-width="0.5">
        <rect x="7" y="20" width="5" height="8" rx="1"/>
        <rect x="16" y="20" width="5" height="8" rx="1"/>
        <rect x="25" y="20" width="5" height="8" rx="1"/>
        
        <rect x="7" y="35" width="5" height="8" rx="1"/>
        <rect x="16" y="35" width="5" height="8" rx="1"/>
        <rect x="25" y="35" width="5" height="8" rx="1"/>
        
        <rect x="7" y="50" width="5" height="8" rx="1"/>
        <rect x="16" y="50" width="5" height="8" rx="1"/>
        <rect x="25" y="50" width="5" height="8" rx="1"/>
        
        <rect x="7" y="65" width="5" height="8" rx="1"/>
        <rect x="16" y="65" width="5" height="8" rx="1"/>
        <rect x="25" y="65" width="5" height="8" rx="1"/>
        
        <rect x="7" y="80" width="5" height="8" rx="1"/>
        <rect x="16" y="80" width="5" height="8" rx="1"/>
        <rect x="25" y="80" width="5" height="8" rx="1"/>
        
        <rect x="7" y="95" width="5" height="8" rx="1"/>
        <rect x="16" y="95" width="5" height="8" rx="1"/>
        <rect x="25" y="95" width="5" height="8" rx="1"/>
      </g>
    </g>
  </g>
  
  <!-- Charts and business elements -->
  <g id="business-elements">
    <!-- Bar chart -->
    <g transform="translate(235, 210)">
      <rect x="0" y="0" width="60" height="40" rx="3" fill="#333" stroke="#ff3333" stroke-width="1"/>
      <rect x="5" y="5" width="50" height="30" rx="2" fill="#262626" stroke="#ff3333" stroke-width="0.5"/>
      
      <!-- Bars -->
      <rect x="10" y="20" width="5" height="10" fill="#cc0000" opacity="0.7"/>
      <rect x="20" y="12" width="5" height="18" fill="#cc0000" opacity="0.9"/>
      <rect x="30" y="7" width="5" height="23" fill="#ff3333"/>
      <rect x="40" y="15" width="5" height="15" fill="#cc0000" opacity="0.8"/>
    </g>
    
    <!-- Line chart -->
    <g transform="translate(130, 170)">
      <rect x="0" y="0" width="60" height="40" rx="3" fill="#333" stroke="#ff3333" stroke-width="1"/>
      <rect x="5" y="5" width="50" height="30" rx="2" fill="#262626" stroke="#ff3333" stroke-width="0.5"/>
      
      <!-- Line -->
      <polyline points="8,25 15,15 25,22 35,12 45,18" fill="none" stroke="#ff3333" stroke-width="1.5" stroke-linejoin="round"/>
      <circle cx="8" cy="25" r="1.5" fill="#ff3333"/>
      <circle cx="15" cy="15" r="1.5" fill="#ff3333"/>
      <circle cx="25" cy="22" r="1.5" fill="#ff3333"/>
      <circle cx="35" cy="12" r="1.5" fill="#ff3333"/>
      <circle cx="45" cy="18" r="1.5" fill="#ff3333"/>
    </g>
    
    <!-- Document icon -->
    <g transform="translate(190, 130)">
      <rect x="0" y="0" width="35" height="45" rx="2" fill="#f5f5f5" stroke="#666" stroke-width="1"/>
      <line x1="7" y1="10" x2="28" y2="10" stroke="#999" stroke-width="1"/>
      <line x1="7" y1="17" x2="28" y2="17" stroke="#999" stroke-width="1"/>
      <line x1="7" y1="24" x2="28" y2="24" stroke="#999" stroke-width="1"/>
      <line x1="7" y1="31" x2="20" y2="31" stroke="#999" stroke-width="1"/>
    </g>
    
    <!-- Gear icon -->
    <g transform="translate(270, 150)">
      <circle cx="15" cy="15" r="15" fill="#444" stroke="#666" stroke-width="1"/>
      <circle cx="15" cy="15" r="6" fill="#333" stroke="#ff3333" stroke-width="1"/>
      
      <!-- Gear teeth -->
      <g>
        <rect x="13" y="0" width="4" height="6" fill="#666"/>
        <rect x="13" y="24" width="4" height="6" fill="#666"/>
        <rect x="0" y="13" width="6" height="4" fill="#666"/>
        <rect x="24" y="13" width="6" height="4" fill="#666"/>
        
        <!-- Diagonals -->
        <rect x="3" y="3" width="6" height="4" transform="rotate(45 6 5)" fill="#666"/>
        <rect x="21" y="3" width="6" height="4" transform="rotate(-45 24 5)" fill="#666"/>
        <rect x="3" y="23" width="6" height="4" transform="rotate(-45 6 25)" fill="#666"/>
        <rect x="21" y="23" width="6" height="4" transform="rotate(45 24 25)" fill="#666"/>
      </g>
    </g>
  </g>
  
  <!-- Connection lines -->
  <g id="connections" stroke="#ff3333" stroke-width="0.8" stroke-dasharray="3,2" opacity="0.6">
    <line x1="180" y1="150" x2="225" y2="185"/>
    <line x1="210" y1="175" x2="255" y2="220"/>
    <line x1="270" y1="170" x2="230" y2="200"/>
  </g>
  
  <!-- Gradients and definitions -->
  <defs>
    <radialGradient id="radialGradient" cx="200" cy="200" r="170" gradientUnits="userSpaceOnUse">
      <stop offset="0%" stop-color="#ff3333" stop-opacity="0.2"/>
      <stop offset="70%" stop-color="#ff0000" stop-opacity="0.05"/>
      <stop offset="100%" stop-color="#000000" stop-opacity="0"/>
    </radialGradient>
  </defs>
</svg>
