<?xml version="1.0" encoding="UTF-8"?>
<svg width="300" height="240" viewBox="0 0 300 240" version="1.1" xmlns="http://www.w3.org/2000/svg">
  <!-- H letter -->
  <path d="M50,20 C60,25 75,35 85,50 C95,65 100,85 100,110 C100,140 95,160 85,175 C75,190 60,200 50,205 L60,180 C65,170 70,155 70,130 C70,105 65,85 60,70 L50,20 Z" fill="#ff0000" stroke="#000000" stroke-width="2"/>
  
  <!-- S letter with the right side of H -->
  <path d="M145,20 C135,25 120,35 110,50 C100,65 95,85 95,110 C95,140 100,160 110,175 C120,190 135,200 145,205 L135,180 C130,170 125,155 125,130 C125,105 130,85 135,70 L145,20 Z" fill="#ff0000" stroke="#000000" stroke-width="2"/>
  
  <!-- S letter main body -->
  <path d="M160,80 C180,75 195,85 195,100 C195,115 180,125 160,130 C140,135 130,145 130,160 C130,180 150,195 180,190 C190,185 195,180 200,175 L190,160 C185,165 175,170 165,170 C150,170 145,165 145,155 C145,145 155,140 170,135 C195,130 210,115 210,95 C210,70 185,60 160,65 C145,70 135,75 130,80 L135,95 C140,90 150,83 160,80 Z" fill="#ff0000" stroke="#000000" stroke-width="2"/>
  
  <!-- Black circle behind S -->
  <circle cx="170" cy="130" r="50" fill="#000000" fill-opacity="0.8" stroke="none"/>
  
  <!-- S overlay to appear above the black circle -->
  <path d="M160,80 C180,75 195,85 195,100 C195,115 180,125 160,130 C140,135 130,145 130,160 C130,180 150,195 180,190 C190,185 195,180 200,175 L190,160 C185,165 175,170 165,170 C150,170 145,165 145,155 C145,145 155,140 170,135 C195,130 210,115 210,95 C210,70 185,60 160,65 C145,70 135,75 130,80 L135,95 C140,90 150,83 160,80 Z" fill="#ff0000" stroke="#000000" stroke-width="2"/>
  
  <!-- GROUP text -->
  <g transform="translate(85, 215)" fill="#800000" stroke="#000000" stroke-width="0.5">
    <path d="M15,0 C7,0 0,5 0,12 C0,19 6,24 15,24 C19,24 23,23 25,21 L25,15 L14,15 L14,19 L20,19 L20,20 C19,21 17,21 15,21 C10,21 5,18 5,12 C5,6 10,3 15,3 C18,3 20,4 22,5 L24,2 C22,1 19,0 15,0 Z"/>
    <path d="M37,0 L32,0 L32,24 L37,24 L37,15 L48,15 L48,24 L53,24 L53,0 L48,0 L48,10 L37,10 L37,0 Z"/>
    <path d="M75,0 C67,0 60,5 60,12 C60,19 66,24 75,24 C79,24 82,23 85,21 L83,18 C81,19 78,20 76,20 C70,20 65,17 65,12 C65,7 70,4 76,4 C78,4 81,5 83,6 L85,2 C82,1 79,0 75,0 Z"/>
    <path d="M94,0 L89,0 L89,24 L106,24 L106,20 L94,20 L94,0 Z"/>
    <path d="M126,0 L115,0 L115,24 L120,24 L120,15 L125,15 C131,15 135,12 135,7.5 C135,3 131,0 126,0 Z M125,11 L120,11 L120,4 L125,4 C128,4 130,5 130,7.5 C130,10 128,11 125,11 Z"/>
  </g>
</svg>
